<svg width="30" height="30" viewBox="0 0 30 30" fill="none" xmlns="http://www.w3.org/2000/svg">
<rect width="30" height="30" fill="#1E1E1E"/>
<g clip-path="url(#clip0_0_1)">
<rect width="640" height="1006" transform="translate(-305 -422)" fill="#0F1121"/>
<rect width="592" height="128" transform="translate(-281 -70)" fill="#161827"/>
<path d="M-104.81 -23.5L-105.79 -25.852H-110.494L-111.46 -23.5H-112.762L-108.758 -33.3H-107.61L-103.48 -23.5H-104.81ZM-108.156 -31.606L-110.032 -26.972H-106.252L-108.156 -31.606ZM-98.0303 -31.228C-96.9009 -31.228 -95.9723 -30.8547 -95.2443 -30.108C-94.5069 -29.3613 -94.1383 -28.4187 -94.1383 -27.28C-94.1383 -26.1507 -94.5069 -25.208 -95.2443 -24.452C-95.9723 -23.7053 -96.9009 -23.332 -98.0303 -23.332C-99.1689 -23.332 -100.107 -23.724 -100.844 -24.508V-20.798H-102.034V-31.06H-101.222L-100.984 -29.898C-100.63 -30.318 -100.2 -30.6447 -99.6963 -30.878C-99.1829 -31.1113 -98.6276 -31.228 -98.0303 -31.228ZM-98.1143 -24.48C-97.3116 -24.48 -96.6489 -24.746 -96.1263 -25.278C-95.6036 -25.81 -95.3423 -26.4773 -95.3423 -27.28C-95.3423 -28.0827 -95.6036 -28.75 -96.1263 -29.282C-96.6489 -29.814 -97.3116 -30.08 -98.1143 -30.08C-98.9169 -30.08 -99.5843 -29.8093 -100.116 -29.268C-100.639 -28.736 -100.9 -28.0733 -100.9 -27.28C-100.9 -26.7573 -100.784 -26.2813 -100.55 -25.852C-100.308 -25.4227 -99.9716 -25.0867 -99.5423 -24.844C-99.1129 -24.6013 -98.6369 -24.48 -98.1143 -24.48ZM-88.3232 -31.228C-87.1939 -31.228 -86.2652 -30.8547 -85.5372 -30.108C-84.7999 -29.3613 -84.4312 -28.4187 -84.4312 -27.28C-84.4312 -26.1507 -84.7999 -25.208 -85.5372 -24.452C-86.2652 -23.7053 -87.1939 -23.332 -88.3232 -23.332C-89.4619 -23.332 -90.3999 -23.724 -91.1372 -24.508V-20.798H-92.3272V-31.06H-91.5152L-91.2772 -29.898C-90.9226 -30.318 -90.4932 -30.6447 -89.9892 -30.878C-89.4759 -31.1113 -88.9206 -31.228 -88.3232 -31.228ZM-88.4072 -24.48C-87.6046 -24.48 -86.9419 -24.746 -86.4192 -25.278C-85.8966 -25.81 -85.6352 -26.4773 -85.6352 -27.28C-85.6352 -28.0827 -85.8966 -28.75 -86.4192 -29.282C-86.9419 -29.814 -87.6046 -30.08 -88.4072 -30.08C-89.2099 -30.08 -89.8772 -29.8093 -90.4092 -29.268C-90.9319 -28.736 -91.1932 -28.0733 -91.1932 -27.28C-91.1932 -26.7573 -91.0766 -26.2813 -90.8432 -25.852C-90.6006 -25.4227 -90.2646 -25.0867 -89.8353 -24.844C-89.4059 -24.6013 -88.9299 -24.48 -88.4072 -24.48ZM-82.6202 -23.5V-33.762H-81.4302V-23.5H-82.6202ZM-71.9682 -27.252C-71.9682 -27.1493 -71.9775 -27.0047 -71.9962 -26.818H-78.4502C-78.3569 -26.118 -78.0675 -25.5533 -77.5822 -25.124C-77.0969 -24.704 -76.4995 -24.494 -75.7902 -24.494C-75.2675 -24.494 -74.8055 -24.606 -74.4042 -24.83C-73.9935 -25.0633 -73.6669 -25.39 -73.4242 -25.81H-72.1782C-72.4955 -25.026 -72.9715 -24.4147 -73.6062 -23.976C-74.2409 -23.5467 -74.9689 -23.332 -75.7902 -23.332C-76.8822 -23.332 -77.7969 -23.71 -78.5342 -24.466C-79.2715 -25.222 -79.6402 -26.16 -79.6402 -27.28C-79.6402 -28.4093 -79.2715 -29.3473 -78.5342 -30.094C-77.7969 -30.85 -76.8822 -31.228 -75.7902 -31.228C-74.6609 -31.228 -73.7415 -30.8453 -73.0322 -30.08C-72.3229 -29.3147 -71.9682 -28.372 -71.9682 -27.252ZM-75.7902 -30.094C-76.2382 -30.094 -76.6489 -30.0053 -77.0222 -29.828C-77.3862 -29.6507 -77.6895 -29.394 -77.9322 -29.058C-78.1749 -28.7313 -78.3382 -28.3533 -78.4222 -27.924H-73.1722C-73.2562 -28.3627 -73.4195 -28.7453 -73.6622 -29.072C-73.9049 -29.408 -74.2082 -29.66 -74.5722 -29.828C-74.9362 -30.0053 -75.3422 -30.094 -75.7902 -30.094ZM-66.5844 -32.376V-33.734H-65.2964V-32.376H-66.5844ZM-66.5284 -23.5V-31.06H-65.3384V-23.5H-66.5284ZM-59.2924 -33.3C-58.3684 -33.3 -57.5984 -33.0013 -56.9824 -32.404C-56.3571 -31.8067 -56.0444 -31.06 -56.0444 -30.164C-56.0444 -29.268 -56.3571 -28.5213 -56.9824 -27.924C-57.5984 -27.3267 -58.3684 -27.028 -59.2924 -27.028H-61.5884V-23.5H-62.8064V-33.3H-59.2924ZM-59.3624 -28.218C-58.7651 -28.218 -58.2751 -28.4 -57.8924 -28.764C-57.5004 -29.1373 -57.3044 -29.604 -57.3044 -30.164C-57.3044 -30.724 -57.5004 -31.186 -57.8924 -31.55C-58.2751 -31.9233 -58.7651 -32.11 -59.3624 -32.11H-61.5884V-28.218H-59.3624ZM-50.6215 -31.228C-49.7255 -31.228 -49.0161 -30.9387 -48.4935 -30.36C-47.9708 -29.7907 -47.7095 -29.0113 -47.7095 -28.022V-23.5H-48.8995V-27.742C-48.8995 -28.2553 -48.9788 -28.6893 -49.1375 -29.044C-49.2868 -29.3987 -49.5155 -29.6693 -49.8235 -29.856C-50.1221 -30.0427 -50.4908 -30.136 -50.9295 -30.136C-51.5735 -30.136 -52.1148 -29.8933 -52.5535 -29.408C-52.9921 -28.932 -53.2115 -28.3393 -53.2115 -27.63V-23.5H-54.4015V-33.762H-53.2115V-30.038C-52.9221 -30.4113 -52.5535 -30.7007 -52.1055 -30.906C-51.6575 -31.1207 -51.1628 -31.228 -50.6215 -31.228ZM-42.017 -23.332C-42.7637 -23.332 -43.445 -23.5 -44.061 -23.836C-44.677 -24.1813 -45.1577 -24.6527 -45.503 -25.25C-45.8484 -25.8567 -46.021 -26.5333 -46.021 -27.28C-46.021 -28.4187 -45.643 -29.3613 -44.887 -30.108C-44.1217 -30.8547 -43.165 -31.228 -42.017 -31.228C-41.261 -31.228 -40.5797 -31.0553 -39.973 -30.71C-39.357 -30.374 -38.8764 -29.9027 -38.531 -29.296C-38.1764 -28.6987 -37.999 -28.0267 -37.999 -27.28C-37.999 -26.1507 -38.3817 -25.208 -39.147 -24.452C-39.9124 -23.7053 -40.869 -23.332 -42.017 -23.332ZM-44.019 -25.264C-43.487 -24.7413 -42.8197 -24.48 -42.017 -24.48C-41.205 -24.48 -40.5377 -24.7413 -40.015 -25.264C-39.483 -25.796 -39.217 -26.468 -39.217 -27.28C-39.217 -28.092 -39.483 -28.7593 -40.015 -29.282C-40.5377 -29.814 -41.205 -30.08 -42.017 -30.08C-42.8197 -30.08 -43.487 -29.814 -44.019 -29.282C-44.5417 -28.7593 -44.803 -28.092 -44.803 -27.28C-44.803 -26.468 -44.5417 -25.796 -44.019 -25.264ZM-32.4105 -31.228C-31.5239 -31.228 -30.8192 -30.9293 -30.2965 -30.332C-29.7645 -29.7347 -29.4985 -28.9647 -29.4985 -28.022V-23.5H-30.6885V-27.742C-30.6885 -28.2553 -30.7679 -28.6893 -30.9265 -29.044C-31.0759 -29.3987 -31.3045 -29.6693 -31.6125 -29.856C-31.9112 -30.0427 -32.2799 -30.136 -32.7185 -30.136C-33.3625 -30.136 -33.9039 -29.8933 -34.3425 -29.408C-34.7812 -28.932 -35.0005 -28.3393 -35.0005 -27.63V-23.5H-36.1905V-31.06H-35.3505L-35.1125 -29.87C-34.9259 -30.1593 -34.6972 -30.402 -34.4265 -30.598C-34.1559 -30.8033 -33.8479 -30.9573 -33.5025 -31.06C-33.1572 -31.172 -32.7932 -31.228 -32.4105 -31.228ZM-20.1381 -27.252C-20.1381 -27.1493 -20.1474 -27.0047 -20.1661 -26.818H-26.6201C-26.5268 -26.118 -26.2374 -25.5533 -25.7521 -25.124C-25.2668 -24.704 -24.6694 -24.494 -23.9601 -24.494C-23.4374 -24.494 -22.9754 -24.606 -22.5741 -24.83C-22.1634 -25.0633 -21.8368 -25.39 -21.5941 -25.81H-20.3481C-20.6654 -25.026 -21.1414 -24.4147 -21.7761 -23.976C-22.4108 -23.5467 -23.1388 -23.332 -23.9601 -23.332C-25.0521 -23.332 -25.9668 -23.71 -26.7041 -24.466C-27.4414 -25.222 -27.8101 -26.16 -27.8101 -27.28C-27.8101 -28.4093 -27.4414 -29.3473 -26.7041 -30.094C-25.9668 -30.85 -25.0521 -31.228 -23.9601 -31.228C-22.8308 -31.228 -21.9114 -30.8453 -21.2021 -30.08C-20.4928 -29.3147 -20.1381 -28.372 -20.1381 -27.252ZM-23.9601 -30.094C-24.4081 -30.094 -24.8188 -30.0053 -25.1921 -29.828C-25.5561 -29.6507 -25.8594 -29.394 -26.1021 -29.058C-26.3448 -28.7313 -26.5081 -28.3533 -26.5921 -27.924H-21.3421C-21.4261 -28.3627 -21.5894 -28.7453 -21.8321 -29.072C-22.0748 -29.408 -22.3781 -29.66 -22.7421 -29.828C-23.1061 -30.0053 -23.5121 -30.094 -23.9601 -30.094ZM-15.5383 -32.81H-12.6123V-23.5H-13.7603V-31.746H-15.5383V-32.81ZM-4.11358 -26.496V-25.46H-5.09358V-23.5H-6.21358V-25.46H-10.9876V-25.74L-7.71158 -32.81H-6.50758L-9.41958 -26.496H-6.19958L-6.01758 -29.366H-5.09358V-26.496H-4.11358ZM4.80136 -33.3C5.72536 -33.3 6.49536 -33.0013 7.11136 -32.404C7.73669 -31.8067 8.04936 -31.06 8.04936 -30.164C8.04936 -29.268 7.73669 -28.5213 7.11136 -27.924C6.49536 -27.3267 5.72536 -27.028 4.80136 -27.028H2.50536V-23.5H1.28736V-33.3H4.80136ZM4.73136 -28.218C5.32869 -28.218 5.81869 -28.4 6.20136 -28.764C6.59336 -29.1373 6.78936 -29.604 6.78936 -30.164C6.78936 -30.724 6.59336 -31.186 6.20136 -31.55C5.81869 -31.9233 5.32869 -32.11 4.73136 -32.11H2.50536V-28.218H4.73136ZM9.69228 -23.5V-33.762H10.8823V-23.5H9.69228ZM16.4943 -23.332C15.477 -23.332 14.6603 -23.6353 14.0443 -24.242C13.4376 -24.858 13.1343 -25.6747 13.1343 -26.692V-31.06H14.3243V-26.888C14.3243 -26.3933 14.413 -25.964 14.5903 -25.6C14.7676 -25.2453 15.0196 -24.97 15.3463 -24.774C15.673 -24.578 16.0556 -24.48 16.4943 -24.48C17.1663 -24.48 17.6936 -24.6947 18.0763 -25.124C18.459 -25.5533 18.6503 -26.1413 18.6503 -26.888V-31.06H19.8403V-26.692C19.8403 -25.6747 19.537 -24.858 18.9303 -24.242C18.3236 -23.6353 17.5116 -23.332 16.4943 -23.332ZM24.514 -23.332C23.9167 -23.332 23.394 -23.43 22.946 -23.626C22.498 -23.8313 22.148 -24.1207 21.896 -24.494C21.644 -24.8767 21.5087 -25.32 21.49 -25.824H22.652C22.68 -25.3853 22.8667 -25.0447 23.212 -24.802C23.5573 -24.5593 24.0007 -24.438 24.542 -24.438C25.074 -24.438 25.5033 -24.5407 25.83 -24.746C26.1567 -24.9607 26.32 -25.25 26.32 -25.614C26.32 -25.754 26.2967 -25.88 26.25 -25.992C26.2127 -26.104 26.1427 -26.202 26.04 -26.286C25.9373 -26.37 25.8347 -26.44 25.732 -26.496C25.6293 -26.552 25.4893 -26.6033 25.312 -26.65C25.144 -26.6967 24.9947 -26.7293 24.864 -26.748C24.7427 -26.776 24.5747 -26.8087 24.36 -26.846C24.1173 -26.8833 23.9307 -26.916 23.8 -26.944C23.6693 -26.972 23.492 -27.014 23.268 -27.07C23.044 -27.1353 22.8667 -27.2007 22.736 -27.266C22.6053 -27.3313 22.4607 -27.42 22.302 -27.532C22.1433 -27.644 22.022 -27.7653 21.938 -27.896C21.854 -28.0267 21.7793 -28.19 21.714 -28.386C21.658 -28.582 21.63 -28.8013 21.63 -29.044C21.63 -29.3613 21.6953 -29.6553 21.826 -29.926C21.966 -30.1967 22.1573 -30.4253 22.4 -30.612C22.652 -30.808 22.9553 -30.9573 23.31 -31.06C23.6647 -31.172 24.052 -31.228 24.472 -31.228C25.3307 -31.228 26.0167 -31.018 26.53 -30.598C27.0433 -30.178 27.3093 -29.6087 27.328 -28.89H26.208C26.1893 -29.1607 26.1053 -29.3893 25.956 -29.576C25.816 -29.772 25.6153 -29.9167 25.354 -30.01C25.102 -30.1127 24.8033 -30.164 24.458 -30.164C24.1127 -30.164 23.814 -30.1173 23.562 -30.024C23.31 -29.94 23.114 -29.814 22.974 -29.646C22.8433 -29.478 22.778 -29.2867 22.778 -29.072C22.778 -28.9227 22.8153 -28.7873 22.89 -28.666C22.9647 -28.554 23.0487 -28.4607 23.142 -28.386C23.2353 -28.3207 23.38 -28.2553 23.576 -28.19C23.772 -28.134 23.9353 -28.092 24.066 -28.064C24.206 -28.0453 24.402 -28.0127 24.654 -27.966C24.9153 -27.9287 25.1067 -27.896 25.228 -27.868C25.3587 -27.8493 25.5407 -27.8073 25.774 -27.742C26.0167 -27.686 26.2033 -27.6253 26.334 -27.56C26.4647 -27.4947 26.614 -27.4013 26.782 -27.28C26.9593 -27.168 27.09 -27.0373 27.174 -26.888C27.258 -26.748 27.3327 -26.5707 27.398 -26.356C27.4633 -26.1507 27.496 -25.922 27.496 -25.67C27.496 -24.9607 27.2207 -24.3913 26.67 -23.962C26.1287 -23.542 25.41 -23.332 24.514 -23.332ZM-112.636 -11.81H-109.71V-2.5H-110.858V-10.746H-112.636V-11.81ZM-105.579 -3.606H-101.603V-2.5H-107.861V-2.878C-106.415 -4.39 -105.365 -5.52867 -104.711 -6.294C-104.058 -7.06867 -103.629 -7.65667 -103.423 -8.058C-103.218 -8.45933 -103.115 -8.87 -103.115 -9.29C-103.115 -9.52333 -103.157 -9.738 -103.241 -9.934C-103.316 -10.13 -103.428 -10.298 -103.577 -10.438C-103.717 -10.578 -103.89 -10.6853 -104.095 -10.76C-104.301 -10.8347 -104.525 -10.872 -104.767 -10.872C-105.113 -10.872 -105.416 -10.802 -105.677 -10.662C-105.939 -10.5313 -106.139 -10.3447 -106.279 -10.102C-106.419 -9.85933 -106.489 -9.584 -106.489 -9.276V-9.052H-107.637V-9.276C-107.637 -9.808 -107.521 -10.2793 -107.287 -10.69C-107.045 -11.1007 -106.709 -11.418 -106.279 -11.642C-105.841 -11.866 -105.337 -11.978 -104.767 -11.978C-103.937 -11.978 -103.26 -11.726 -102.737 -11.222C-102.215 -10.7273 -101.953 -10.0833 -101.953 -9.29C-101.953 -8.83267 -102.037 -8.39867 -102.205 -7.988C-102.373 -7.57733 -102.719 -7.02667 -103.241 -6.336C-103.755 -5.65467 -104.534 -4.74467 -105.579 -3.606ZM-94.9898 -7.484C-94.5884 -7.26933 -94.2711 -6.95667 -94.0378 -6.546C-93.8044 -6.13533 -93.6878 -5.68267 -93.6878 -5.188C-93.6878 -4.35733 -93.9958 -3.67133 -94.6118 -3.13C-95.2278 -2.598 -96.0211 -2.332 -96.9918 -2.332C-97.6451 -2.332 -98.2238 -2.44867 -98.7278 -2.682C-99.2224 -2.92467 -99.6051 -3.26067 -99.8758 -3.69C-100.146 -4.12867 -100.282 -4.628 -100.282 -5.188C-100.282 -5.51467 -100.23 -5.82267 -100.128 -6.112C-100.016 -6.41067 -99.8618 -6.67667 -99.6658 -6.91C-99.4698 -7.14333 -99.2364 -7.33467 -98.9658 -7.484C-99.2644 -7.69867 -99.5024 -7.98333 -99.6798 -8.338C-99.8571 -8.702 -99.9458 -9.08467 -99.9458 -9.486C-99.9458 -10.2233 -99.6751 -10.8207 -99.1338 -11.278C-98.5831 -11.7447 -97.8691 -11.978 -96.9918 -11.978C-96.6464 -11.978 -96.3198 -11.936 -96.0118 -11.852C-95.7038 -11.7773 -95.4331 -11.6653 -95.1998 -11.516C-94.9571 -11.376 -94.7518 -11.2033 -94.5838 -10.998C-94.4064 -10.802 -94.2711 -10.5733 -94.1778 -10.312C-94.0844 -10.0507 -94.0378 -9.77533 -94.0378 -9.486C-94.0378 -9.21533 -94.0798 -8.94933 -94.1638 -8.688C-94.2384 -8.436 -94.3504 -8.20733 -94.4998 -8.002C-94.6398 -7.79667 -94.8031 -7.624 -94.9898 -7.484ZM-96.9918 -10.984C-97.5331 -10.984 -97.9718 -10.844 -98.3078 -10.564C-98.6438 -10.284 -98.8118 -9.92467 -98.8118 -9.486C-98.8118 -9.02867 -98.6438 -8.66 -98.3078 -8.38C-97.9718 -8.1 -97.5331 -7.96 -96.9918 -7.96C-96.4598 -7.96 -96.0258 -8.1 -95.6898 -8.38C-95.3538 -8.66 -95.1858 -9.02867 -95.1858 -9.486C-95.1858 -9.92467 -95.3538 -10.284 -95.6898 -10.564C-96.0164 -10.844 -96.4504 -10.984 -96.9918 -10.984ZM-96.9918 -3.354C-96.3571 -3.354 -95.8438 -3.522 -95.4518 -3.858C-95.0504 -4.194 -94.8498 -4.628 -94.8498 -5.16C-94.8498 -5.70133 -95.0504 -6.13533 -95.4518 -6.462C-95.8438 -6.798 -96.3571 -6.966 -96.9918 -6.966C-97.6171 -6.966 -98.1304 -6.798 -98.5318 -6.462C-98.9238 -6.13533 -99.1198 -5.70133 -99.1198 -5.16C-99.1198 -4.80533 -99.0311 -4.49267 -98.8538 -4.222C-98.6764 -3.95133 -98.4244 -3.73667 -98.0978 -3.578C-97.7711 -3.42867 -97.4024 -3.354 -96.9918 -3.354ZM-87.665 -7.358H-82.415C-82.443 -5.88333 -82.9144 -4.67467 -83.829 -3.732C-84.7344 -2.79867 -85.8964 -2.332 -87.315 -2.332C-88.7524 -2.332 -89.9424 -2.808 -90.885 -3.76C-91.8184 -4.72133 -92.285 -5.93467 -92.285 -7.4C-92.285 -8.856 -91.8184 -10.06 -90.885 -11.012C-89.9424 -11.9733 -88.7617 -12.454 -87.343 -12.454C-86.559 -12.454 -85.831 -12.3 -85.159 -11.992C-84.4777 -11.6933 -83.913 -11.2733 -83.465 -10.732C-83.0077 -10.1907 -82.709 -9.57467 -82.569 -8.884H-83.829C-83.969 -9.35067 -84.207 -9.76133 -84.543 -10.116C-84.879 -10.48 -85.2897 -10.76 -85.775 -10.956C-86.251 -11.152 -86.7644 -11.25 -87.315 -11.25C-88.0244 -11.25 -88.6637 -11.0867 -89.233 -10.76C-89.793 -10.4333 -90.2317 -9.976 -90.549 -9.388C-90.8664 -8.8 -91.025 -8.13733 -91.025 -7.4C-91.025 -6.26133 -90.6844 -5.33267 -90.003 -4.614C-89.3124 -3.89533 -88.4164 -3.536 -87.315 -3.536C-86.7177 -3.536 -86.1717 -3.648 -85.677 -3.872C-85.173 -4.096 -84.7577 -4.40867 -84.431 -4.81C-84.095 -5.21133 -83.8664 -5.67333 -83.745 -6.196H-87.665V-7.358ZM-75.0251 -7.582C-74.5678 -7.386 -74.2084 -7.07333 -73.9471 -6.644C-73.6858 -6.21467 -73.5551 -5.734 -73.5551 -5.202C-73.5551 -4.43667 -73.8398 -3.79267 -74.4091 -3.27C-74.9784 -2.75667 -75.6831 -2.5 -76.5231 -2.5H-80.4431V-12.3H-76.5791C-75.7764 -12.3 -75.1184 -12.062 -74.6051 -11.586C-74.0824 -11.11 -73.8211 -10.5127 -73.8211 -9.794C-73.8211 -9.35533 -73.9331 -8.93067 -74.1571 -8.52C-74.3718 -8.10933 -74.6611 -7.79667 -75.0251 -7.582ZM-75.0671 -9.626C-75.0671 -9.906 -75.1371 -10.158 -75.2771 -10.382C-75.4078 -10.606 -75.5898 -10.7787 -75.8231 -10.9C-76.0564 -11.0307 -76.3178 -11.096 -76.6071 -11.096H-79.2391V-8.156H-76.5931C-76.1638 -8.156 -75.8044 -8.296 -75.5151 -8.576C-75.2164 -8.86533 -75.0671 -9.21533 -75.0671 -9.626ZM-76.5371 -3.718C-76.0518 -3.718 -75.6458 -3.872 -75.3191 -4.18C-74.9924 -4.488 -74.8291 -4.87533 -74.8291 -5.342C-74.8291 -5.79933 -74.9924 -6.182 -75.3191 -6.49C-75.6458 -6.798 -76.0518 -6.952 -76.5371 -6.952H-79.2391V-3.718H-76.5371ZM-64.2416 -12.3C-63.3176 -12.3 -62.5476 -12.0013 -61.9316 -11.404C-61.3063 -10.8067 -60.9936 -10.06 -60.9936 -9.164C-60.9936 -8.268 -61.3063 -7.52133 -61.9316 -6.924C-62.5476 -6.32667 -63.3176 -6.028 -64.2416 -6.028H-66.5376V-2.5H-67.7556V-12.3H-64.2416ZM-64.3116 -7.218C-63.7143 -7.218 -63.2243 -7.4 -62.8416 -7.764C-62.4496 -8.13733 -62.2536 -8.604 -62.2536 -9.164C-62.2536 -9.724 -62.4496 -10.186 -62.8416 -10.55C-63.2243 -10.9233 -63.7143 -11.11 -64.3116 -11.11H-66.5376V-7.218H-64.3116ZM-53.5127 -2.5L-55.7527 -6.336H-57.9927V-2.5H-59.2107V-12.3H-55.5007C-54.5767 -12.3 -53.816 -12.0153 -53.2187 -11.446C-52.612 -10.886 -52.3087 -10.172 -52.3087 -9.304C-52.3087 -8.62267 -52.5047 -8.02533 -52.8967 -7.512C-53.2887 -7.008 -53.8114 -6.66267 -54.4647 -6.476L-52.1267 -2.5H-53.5127ZM-57.9927 -11.138V-7.498H-55.5567C-54.9687 -7.498 -54.488 -7.666 -54.1147 -8.002C-53.7414 -8.34733 -53.5547 -8.786 -53.5547 -9.318C-53.5547 -9.85 -53.7414 -10.284 -54.1147 -10.62C-54.488 -10.9653 -54.9687 -11.138 -55.5567 -11.138H-57.9927ZM-42.0669 -3.774C-43.0376 -2.81267 -44.2649 -2.332 -45.7489 -2.332C-47.2236 -2.332 -48.4463 -2.81267 -49.4169 -3.774C-50.3876 -4.73533 -50.8729 -5.93933 -50.8729 -7.386C-50.8729 -8.842 -50.3876 -10.0507 -49.4169 -11.012C-48.4463 -11.9827 -47.2236 -12.468 -45.7489 -12.468C-44.2649 -12.468 -43.0376 -11.9873 -42.0669 -11.026C-41.0963 -10.0647 -40.6109 -8.856 -40.6109 -7.4C-40.6109 -5.944 -41.0963 -4.73533 -42.0669 -3.774ZM-48.5209 -4.642C-47.7836 -3.90467 -46.8596 -3.536 -45.7489 -3.536C-44.6289 -3.536 -43.7049 -3.9 -42.9769 -4.628C-42.2396 -5.36533 -41.8709 -6.28933 -41.8709 -7.4C-41.8709 -8.51067 -42.2396 -9.43 -42.9769 -10.158C-43.7049 -10.8953 -44.6289 -11.264 -45.7489 -11.264C-46.8596 -11.264 -47.7836 -10.8953 -48.5209 -10.158C-49.2489 -9.42067 -49.6129 -8.50133 -49.6129 -7.4C-49.6129 -6.29867 -49.2489 -5.37933 -48.5209 -4.642ZM-35.3315 -12.3C-33.8942 -12.3 -32.7088 -11.838 -31.7755 -10.914C-30.8328 -9.99 -30.3615 -8.81867 -30.3615 -7.4C-30.3615 -5.98133 -30.8328 -4.81 -31.7755 -3.886C-32.7088 -2.962 -33.8942 -2.5 -35.3315 -2.5H-38.5935V-12.3H-35.3315ZM-35.3735 -3.648C-34.2722 -3.648 -33.3715 -4.00267 -32.6715 -4.712C-31.9715 -5.42133 -31.6215 -6.31733 -31.6215 -7.4C-31.6215 -8.11867 -31.7802 -8.76267 -32.0975 -9.332C-32.4148 -9.90133 -32.8582 -10.3447 -33.4275 -10.662C-33.9968 -10.9887 -34.6455 -11.152 -35.3735 -11.152H-37.3755V-3.648H-35.3735ZM-24.5879 -2.332C-25.6986 -2.332 -26.6226 -2.69133 -27.3599 -3.41C-28.0879 -4.12867 -28.4519 -5.04333 -28.4519 -6.154V-12.3H-27.2059V-6.238C-27.2059 -5.43533 -26.9633 -4.782 -26.4779 -4.278C-25.9926 -3.78333 -25.3626 -3.536 -24.5879 -3.536C-23.8319 -3.536 -23.2113 -3.78333 -22.7259 -4.278C-22.2406 -4.782 -21.9979 -5.43533 -21.9979 -6.238V-12.3H-20.7519V-6.154C-20.7519 -5.04333 -21.1159 -4.12867 -21.8439 -3.41C-22.5719 -2.69133 -23.4866 -2.332 -24.5879 -2.332ZM-13.8411 -2.346C-15.2971 -2.346 -16.5011 -2.822 -17.4531 -3.774C-18.3957 -4.726 -18.8671 -5.93467 -18.8671 -7.4C-18.8671 -8.86533 -18.3957 -10.074 -17.4531 -11.026C-16.5011 -11.978 -15.2971 -12.454 -13.8411 -12.454C-13.0944 -12.454 -12.4037 -12.3093 -11.7691 -12.02C-11.1251 -11.74 -10.5837 -11.3387 -10.1451 -10.816C-9.69706 -10.2933 -9.3844 -9.682 -9.20706 -8.982H-10.4531C-10.7144 -9.69133 -11.1437 -10.2467 -11.7411 -10.648C-12.3384 -11.0493 -13.0384 -11.25 -13.8411 -11.25C-14.9424 -11.25 -15.8477 -10.886 -16.5571 -10.158C-17.2571 -9.43933 -17.6071 -8.51533 -17.6071 -7.386C-17.6071 -6.266 -17.2571 -5.34667 -16.5571 -4.628C-15.8477 -3.90933 -14.9424 -3.55 -13.8411 -3.55C-13.0197 -3.55 -12.3057 -3.76 -11.6991 -4.18C-11.0924 -4.60933 -10.6631 -5.202 -10.4111 -5.958H-9.15106C-9.43106 -4.84733 -9.99573 -3.96533 -10.8451 -3.312C-11.6851 -2.668 -12.6837 -2.346 -13.8411 -2.346ZM-1.33031 -12.3V-11.152H-4.31231V-2.5H-5.54431V-11.152H-8.52631V-12.3H-1.33031ZM9.2002 -2.5L6.9602 -6.336H4.7202V-2.5H3.5022V-12.3H7.2122C8.1362 -12.3 8.89687 -12.0153 9.4942 -11.446C10.1009 -10.886 10.4042 -10.172 10.4042 -9.304C10.4042 -8.62267 10.2082 -8.02533 9.8162 -7.512C9.4242 -7.008 8.90154 -6.66267 8.2482 -6.476L10.5862 -2.5H9.2002ZM4.7202 -11.138V-7.498H7.1562C7.7442 -7.498 8.22487 -7.666 8.5982 -8.002C8.97154 -8.34733 9.1582 -8.786 9.1582 -9.318C9.1582 -9.85 8.97154 -10.284 8.5982 -10.62C8.22487 -10.9653 7.7442 -11.138 7.1562 -11.138H4.7202ZM19.2916 -6.252C19.2916 -6.14933 19.2822 -6.00467 19.2636 -5.818H12.8096C12.9029 -5.118 13.1922 -4.55333 13.6776 -4.124C14.1629 -3.704 14.7602 -3.494 15.4696 -3.494C15.9922 -3.494 16.4542 -3.606 16.8556 -3.83C17.2662 -4.06333 17.5929 -4.39 17.8356 -4.81H19.0816C18.7642 -4.026 18.2882 -3.41467 17.6536 -2.976C17.0189 -2.54667 16.2909 -2.332 15.4696 -2.332C14.3776 -2.332 13.4629 -2.71 12.7256 -3.466C11.9882 -4.222 11.6196 -5.16 11.6196 -6.28C11.6196 -7.40933 11.9882 -8.34733 12.7256 -9.094C13.4629 -9.85 14.3776 -10.228 15.4696 -10.228C16.5989 -10.228 17.5182 -9.84533 18.2276 -9.08C18.9369 -8.31467 19.2916 -7.372 19.2916 -6.252ZM15.4696 -9.094C15.0216 -9.094 14.6109 -9.00533 14.2376 -8.828C13.8736 -8.65067 13.5702 -8.394 13.3276 -8.058C13.0849 -7.73133 12.9216 -7.35333 12.8376 -6.924H18.0876C18.0036 -7.36267 17.8402 -7.74533 17.5976 -8.072C17.3549 -8.408 17.0516 -8.66 16.6876 -8.828C16.3236 -9.00533 15.9176 -9.094 15.4696 -9.094ZM27.1573 -12.762H28.3473V-2.5H27.4373L27.2693 -3.578C26.5226 -2.74733 25.5566 -2.332 24.3713 -2.332C23.2326 -2.332 22.2946 -2.70533 21.5573 -3.452C20.8293 -4.208 20.4653 -5.15067 20.4653 -6.28C20.4653 -7.41867 20.8293 -8.36133 21.5573 -9.108C22.2946 -9.85467 23.2326 -10.228 24.3713 -10.228C25.4913 -10.228 26.4199 -9.85467 27.1573 -9.108V-12.762ZM22.4673 -4.278C22.9899 -3.746 23.6479 -3.48 24.4413 -3.48C25.2439 -3.48 25.9113 -3.746 26.4433 -4.278C26.9753 -4.81933 27.2413 -5.48667 27.2413 -6.28C27.2413 -7.08267 26.9753 -7.75 26.4433 -8.282C25.9206 -8.814 25.2579 -9.08 24.4553 -9.08C24.0633 -9.08 23.6946 -9.00533 23.3493 -8.856C23.0039 -8.716 22.7099 -8.52467 22.4673 -8.282C22.2246 -8.03933 22.0333 -7.74067 21.8933 -7.386C21.7533 -7.04067 21.6833 -6.672 21.6833 -6.28C21.6833 -5.47733 21.9446 -4.81 22.4673 -4.278ZM-110.312 20.362C-111.637 18.4673 -112.3 16.316 -112.3 13.908C-112.3 11.4907 -111.637 9.32533 -110.312 7.412H-108.996C-109.621 8.26133 -110.135 9.25067 -110.536 10.38C-110.928 11.5093 -111.124 12.6853 -111.124 13.908C-111.124 15.1307 -110.928 16.3067 -110.536 17.436C-110.135 18.5653 -109.621 19.5407 -108.996 20.362H-110.312ZM-96.0211 18.5H-97.2671L-98.5411 10.842L-101.929 18.248H-102.251L-105.639 10.856L-106.913 18.5H-108.173L-106.521 8.7H-105.345L-102.097 15.896L-98.8491 8.7H-97.6451L-96.0211 18.5ZM-84.357 19.662H-85.855L-87.199 18.094C-87.9457 18.4767 -88.767 18.668 -89.663 18.668C-91.1377 18.668 -92.3603 18.1873 -93.331 17.226C-94.3017 16.2647 -94.787 15.0607 -94.787 13.614C-94.787 12.158 -94.3017 10.9493 -93.331 9.988C-92.3603 9.01733 -91.1377 8.532 -89.663 8.532C-88.179 8.532 -86.9517 9.01267 -85.981 9.974C-85.0103 10.9353 -84.525 12.144 -84.525 13.6C-84.525 14.384 -84.679 15.1073 -84.987 15.77C-85.2857 16.4327 -85.7057 16.9973 -86.247 17.464L-84.357 19.662ZM-89.663 17.464C-89.0843 17.464 -88.543 17.3567 -88.039 17.142L-90.335 14.468H-88.823L-87.059 16.526C-86.6577 16.1713 -86.345 15.742 -86.121 15.238C-85.897 14.734 -85.785 14.188 -85.785 13.6C-85.785 12.4893 -86.1537 11.57 -86.891 10.842C-87.619 10.1047 -88.543 9.736 -89.663 9.736C-90.7737 9.736 -91.6977 10.1047 -92.435 10.842C-93.163 11.5793 -93.527 12.4987 -93.527 13.6C-93.527 14.7013 -93.163 15.6207 -92.435 16.358C-91.6977 17.0953 -90.7737 17.464 -89.663 17.464ZM-80.2816 12.62C-79.6749 12.62 -79.1289 12.7507 -78.6436 13.012C-78.1489 13.2733 -77.7662 13.6373 -77.4956 14.104C-77.2156 14.5613 -77.0756 15.07 -77.0756 15.63C-77.0756 16.498 -77.3742 17.2213 -77.9716 17.8C-78.5689 18.3787 -79.3062 18.668 -80.1836 18.668C-81.0516 18.668 -81.7749 18.3973 -82.3536 17.856C-82.9322 17.3053 -83.2356 16.6147 -83.2636 15.784H-82.1296C-82.1109 16.1293 -82.0176 16.4373 -81.8496 16.708C-81.6722 16.9787 -81.4389 17.1887 -81.1496 17.338C-80.8602 17.4873 -80.5382 17.562 -80.1836 17.562C-79.6236 17.562 -79.1616 17.38 -78.7976 17.016C-78.4336 16.652 -78.2516 16.19 -78.2516 15.63C-78.2516 15.2567 -78.3402 14.9207 -78.5176 14.622C-78.6949 14.314 -78.9422 14.076 -79.2596 13.908C-79.5769 13.74 -79.9316 13.656 -80.3236 13.656H-82.6896L-82.8576 13.46L-82.3816 9.19H-77.7196V10.254H-81.4296L-81.6816 12.62H-80.2816ZM-76.1458 9.19H-73.2198V18.5H-74.3678V10.254H-76.1458V9.19ZM-67.661 12.704C-66.8957 12.816 -66.275 13.1427 -65.799 13.684C-65.323 14.216 -65.085 14.8647 -65.085 15.63C-65.085 16.5073 -65.3837 17.2353 -65.981 17.814C-66.5783 18.3833 -67.3203 18.668 -68.207 18.668C-69.0657 18.668 -69.7797 18.3973 -70.349 17.856C-70.9183 17.3147 -71.2263 16.624 -71.273 15.784H-70.139C-70.1017 16.316 -69.9057 16.7453 -69.551 17.072C-69.1963 17.3987 -68.7483 17.562 -68.207 17.562C-67.8337 17.562 -67.4977 17.478 -67.199 17.31C-66.9003 17.142 -66.667 16.9087 -66.499 16.61C-66.331 16.302 -66.247 15.9613 -66.247 15.588C-66.247 15.0187 -66.4477 14.552 -66.849 14.188C-67.241 13.8147 -67.7403 13.628 -68.347 13.628H-69.397V13.404L-67.241 10.254H-70.965V9.19H-65.449V9.456L-67.661 12.704ZM-62.8565 20.362H-64.1865C-63.5518 19.5407 -63.0385 18.5653 -62.6465 17.436C-62.2452 16.3067 -62.0445 15.1307 -62.0445 13.908C-62.0445 12.6853 -62.2452 11.5093 -62.6465 10.38C-63.0478 9.25067 -63.5565 8.26133 -64.1725 7.412H-62.8565C-61.5312 9.32533 -60.8685 11.4907 -60.8685 13.908C-60.8685 16.316 -61.5312 18.4673 -62.8565 20.362Z" fill="#F1F2F9"/>
<rect x="-305" y="-422" width="640" height="1006" fill="black" fill-opacity="0.6"/>
<rect width="400" height="212" transform="translate(-185 -25)" fill="#161827"/>
<path fill-rule="evenodd" clip-rule="evenodd" d="M0.666656 15C0.666656 7.08391 7.08391 0.666656 15 0.666656C22.9161 0.666656 29.3333 7.08391 29.3333 15C29.3333 22.9161 22.9161 29.3333 15 29.3333C7.08391 29.3333 0.666656 22.9161 0.666656 15ZM21.7071 12.3738C22.0976 11.9832 22.0976 11.3501 21.7071 10.9596C21.3166 10.569 20.6834 10.569 20.2929 10.9596L13.6667 17.5858L11.0404 14.9596C10.6499 14.569 10.0168 14.569 9.62623 14.9596C9.2357 15.3501 9.2357 15.9832 9.62623 16.3738L12.9596 19.7071C13.1471 19.8946 13.4015 20 13.6667 20C13.9319 20 14.1862 19.8946 14.3738 19.7071L21.7071 12.3738Z" fill="#27AE60"/>
</g>
<defs>
<clipPath id="clip0_0_1">
<rect width="640" height="1006" fill="white" transform="translate(-305 -422)"/>
</clipPath>
</defs>
</svg>
